<svg width="48" height="48" fill="none" xmlns="http://www.w3.org/2000/svg"><path d="M15.01 33.347c-2.63-2.393-4.178-5.683-4.178-9.42 0-3.74 1.548-7.03 4.024-9.422 2.166-2.093 2.166-5.383 0-7.477a5.551 5.551 0 0 0-7.738 0C2.785 11.365 0 17.346 0 23.926s2.785 12.561 7.273 16.898a5.551 5.551 0 0 0 7.737 0 5.386 5.386 0 0 0 0-7.477z" fill="#FAE501"/><path d="M15.01 14.505c2.476-2.542 5.88-4.037 9.75-4.037 3.868 0 7.272 1.495 9.748 3.888a5.55 5.55 0 0 0 7.738 0c2.166-2.094 2.166-5.384 0-7.477A25.674 25.674 0 0 0 24.759 0C17.951 0 11.761 2.692 7.273 7.028c-2.166 2.094-2.166 5.384 0 7.477 2.167 1.944 5.571 1.944 7.737 0z" fill="#4FB5E1"/><path d="M34.508 33.347c-2.476 2.542-5.88 4.038-9.749 4.038-3.868 0-7.273-1.496-9.749-3.889a5.551 5.551 0 0 0-7.737 0c-2.166 2.094-2.166 5.384 0 7.477a25.674 25.674 0 0 0 17.486 6.88c6.81 0 13-2.693 17.487-7.03 2.166-2.093 2.166-5.383 0-7.476-2.167-1.944-5.571-1.944-7.738 0z" fill="#F05751"/><path d="M11.142 16c2.991 0 5.416-2.343 5.416-5.233 0-2.89-2.425-5.234-5.416-5.234-2.991 0-5.416 2.343-5.416 5.234 0 2.89 2.425 5.234 5.416 5.234z" fill="#0681B6"/><path d="M11.142 42.32c2.991 0 5.416-2.344 5.416-5.235 0-2.89-2.425-5.233-5.416-5.233-2.991 0-5.416 2.343-5.416 5.233 0 2.891 2.425 5.234 5.416 5.234z" fill="#CD4739"/></svg>